# xmcd CD database file
#
# Track frame offsets:
#	150
#	24732
#	47668
#	66971
#	87840
#	107593
#	127811
#	152353
#	177654
#	202535
#	231763
#	255793
#	280964
#
# Disc length: 4017 seconds
#
# Revision: 7
# Processed by: cddbd v1.5.1PL0 Copyright (c) Steve Scherf et al.
# Submitted via: CDex 1.51
#
DISCID=9d0faf0d
DTITLE=MISIA - Kiss In The Sky
DYEAR=1900
DGENRE=Jazz
TTITLE0=nemurenu yoru wa kimi no sei
TTITLE1=over bit
TTITLE2=Destiny's rule
TTITLE3=LALIA
TTITLE4=Koi-Uta
TTITLE5=Don't stop music !
TTITLE6=Fly away
TTITLE7=Always
TTITLE8=Kaze ni fukarete
TTITLE9=hatenaku tsuduku Story
TTITLE10=Shining Ster
TTITLE11=Taiyou ga iru kara
TTITLE12=Tobikata wo wasureta chiisana Tori
EXTD=
EXTT0=
EXTT1=
EXTT2=
EXTT3=
EXTT4=
EXTT5=
EXTT6=
EXTT7=
EXTT8=
EXTT9=
EXTT10=
EXTT11=
EXTT12=
PLAYORDER=
